<?xml version="1.0" encoding="UTF-8" standalone="no"?>
<svg
   width="173.50584"
   height="71.6175"
   viewBox="0 0 173.50584 71.6175"
   fill="none"
   version="1.1"
   id="svg8"
   sodipodi:docname="logo.svg"
   inkscape:version="1.2.1 (9c6d41e410, 2022-07-14)"
   xmlns:inkscape="http://www.inkscape.org/namespaces/inkscape"
   xmlns:sodipodi="http://sodipodi.sourceforge.net/DTD/sodipodi-0.dtd"
   xmlns="http://www.w3.org/2000/svg"
   xmlns:svg="http://www.w3.org/2000/svg">
  <defs
     id="defs12" />
  <sodipodi:namedview
     id="namedview10"
     pagecolor="#ffffff"
     bordercolor="#000000"
     borderopacity="0.25"
     inkscape:showpageshadow="2"
     inkscape:pageopacity="0.0"
     inkscape:pagecheckerboard="0"
     inkscape:deskcolor="#d1d1d1"
     showgrid="false"
     inkscape:zoom="3.7570093"
     inkscape:cx="170.21517"
     inkscape:cy="46.978856"
     inkscape:window-width="1920"
     inkscape:window-height="991"
     inkscape:window-x="-9"
     inkscape:window-y="-9"
     inkscape:window-maximized="1"
     inkscape:current-layer="svg8" />
  <path
     d="M 0,9.8003 C 0,7.9076 0.39128,6.2242 1.17385,4.75 1.97462,3.2577 3.06658,2.0929 4.44973,1.2558 5.85108,0.4186 7.41623,0 9.14515,0 c 2.1839,0 4.0221,0.5096 5.5144,1.5288 1.4924,1.0191 2.5843,2.4478 3.2759,4.2859 h -1.4196 C 15.96995,4.3587 15.05995,3.2122 13.78595,2.375 12.53025,1.5197 10.98325,1.092 9.14515,1.092 7.67102,1.092 6.33337,1.4469 5.13221,2.1566 3.93105,2.8482 2.98469,3.8583 2.29311,5.1868 1.60154,6.4972 1.25575,8.035 1.25575,9.8003 c 0,1.7472 0.34579,3.2759 1.03736,4.5863 0.69158,1.2921 1.63794,2.2931 2.8391,3.0029 1.20116,0.7097 2.53881,1.0646 4.01294,1.0646 1.8381,0 3.3851,-0.4186 4.6408,-1.2557 1.274,-0.8554 2.184,-2.011 2.7299,-3.467 h 1.4196 c -0.6916,1.8381 -1.7835,3.2668 -3.2759,4.2859 -1.4923,1.0192 -3.3305,1.5288 -5.5144,1.5288 -1.72892,0 -3.29407,-0.4095 -4.69542,-1.2285 C 3.06658,17.4805 1.97462,16.3248 1.17385,14.8507 0.39128,13.3583 0,11.6749 0,9.8003 Z m 23.76465,9.6366 c -0.3094,0 -0.5642,-0.1001 -0.7644,-0.3003 -0.2002,-0.2002 -0.3003,-0.455 -0.3003,-0.7644 0,-0.3094 0.1001,-0.5641 0.3003,-0.7643 0.2002,-0.2002 0.455,-0.3003 0.7644,-0.3003 0.2912,0 0.5369,0.1001 0.7371,0.3003 0.2001,0.2002 0.3002,0.4549 0.3002,0.7643 0,0.3094 -0.1001,0.5642 -0.3002,0.7644 -0.2002,0.2002 -0.4459,0.3003 -0.7371,0.3003 z m 17.3189,-4.9957 h -9.0906 l -1.829,4.9138 h -1.3377 l 7.0431,-18.7271 h 1.365 l 7.0158,18.7271 h -1.3376 z m -0.3822,-1.0374 -4.1495,-11.1653 -4.1767,11.1653 z m 8.6252,6.0331 c -0.3094,0 -0.5642,-0.1001 -0.7644,-0.3003 -0.2002,-0.2002 -0.3003,-0.455 -0.3003,-0.7644 0,-0.3094 0.1001,-0.5641 0.3003,-0.7643 0.2002,-0.2002 0.455,-0.3003 0.7644,-0.3003 0.2912,0 0.5368,0.1001 0.737,0.3003 0.2002,0.2002 0.3003,0.4549 0.3003,0.7643 0,0.3094 -0.1001,0.5642 -0.3003,0.7644 -0.2002,0.2002 -0.4458,0.3003 -0.737,0.3003 z m 11.9955,0.1092 c -1.2375,0 -2.3204,-0.2184 -3.2485,-0.6552 -0.9282,-0.4368 -1.6562,-1.0282 -2.184,-1.7744 -0.5095,-0.7462 -0.8007,-1.5743 -0.8735,-2.4842 h 1.283 c 0.1456,1.0009 0.6097,1.8927 1.3923,2.6753 0.8007,0.7825 2.011,1.1738 3.6307,1.1738 0.9464,0 1.7654,-0.1729 2.4569,-0.5186 0.7098,-0.3458 1.2558,-0.819 1.638,-1.4196 0.3822,-0.6006 0.5733,-1.2649 0.5733,-1.9928 0,-0.9282 -0.2275,-1.6653 -0.6825,-2.2112 -0.4368,-0.546 -0.9919,-0.9555 -1.6653,-1.2285 -0.6551,-0.273 -1.5469,-0.5642 -2.6753,-0.8736 -1.2375,-0.3276 -2.2385,-0.6551 -3.0028,-0.9827 -0.7462,-0.3276 -1.3832,-0.8281 -1.911,-1.5015 -0.5096,-0.6916 -0.7643,-1.6288 -0.7643,-2.8118 0,-0.9099 0.2365,-1.738 0.7097,-2.4842 0.4914,-0.7644 1.183,-1.3649 2.0748,-1.8017 C 58.96525,0.2184 59.99355,0 61.15825,0 c 1.6926,0 3.0575,0.4186 4.0949,1.2558 1.0374,0.8371 1.6561,1.8654 1.8563,3.0847 h -1.3103 c -0.1092,-0.4913 -0.3549,-0.9918 -0.7371,-1.5014 -0.364,-0.5096 -0.8918,-0.9282 -1.5833,-1.2558 -0.6734,-0.3457 -1.4833,-0.5186 -2.4297,-0.5186 -1.2739,0 -2.3477,0.3549 -3.2212,1.0646 -0.8736,0.6916 -1.3104,1.6198 -1.3104,2.7845 0,0.9282 0.2275,1.6744 0.6825,2.2385 0.455,0.546 1.01,0.9646 1.6652,1.2558 0.6734,0.273 1.5743,0.5551 2.7026,0.8463 1.2558,0.3458 2.2476,0.6824 2.9756,1.01 0.7462,0.3094 1.3741,0.8099 1.8836,1.5015 0.5278,0.6734 0.7917,1.5924 0.7917,2.7572 0,0.8553 -0.2275,1.6652 -0.6825,2.4296 -0.4549,0.7644 -1.1283,1.3922 -2.0201,1.8836 -0.8736,0.4732 -1.9382,0.7098 -3.194,0.7098 z m 11.5669,-0.1092 c -0.3094,0 -0.5642,-0.1001 -0.7644,-0.3003 -0.2001,-0.2002 -0.3002,-0.455 -0.3002,-0.7644 0,-0.3094 0.1001,-0.5641 0.3002,-0.7643 0.2002,-0.2002 0.455,-0.3003 0.7644,-0.3003 0.2912,0 0.5369,0.1001 0.7371,0.3003 0.2002,0.2002 0.3003,0.4549 0.3003,0.7643 0,0.3094 -0.1001,0.5642 -0.3003,0.7644 -0.2002,0.2002 -0.4459,0.3003 -0.7371,0.3003 z m 17.3189,-4.9957 h -9.0906 l -1.829,4.9138 h -1.3377 l 7.0432,-18.7271 h 1.3649 l 7.0159,18.7271 h -1.3377 z m -0.3822,-1.0374 -4.1494,-11.1653 -4.1768,11.1653 z"
     fill="#000000"
     id="path2" />
  <path
     d="m 9.03595,39.4455 c 1.1102,0.2002 2.0383,0.7461 2.7845,1.6379 0.7644,0.8918 1.1466,1.9382 1.1466,3.1394 0,0.9828 -0.2366,1.8654 -0.7098,2.648 -0.455,0.7644 -1.1466,1.374 -2.0747,1.829 -0.91,0.4368 -2.02015,0.6552 -3.3305,0.6552 H 0.76437 V 30.1911 h 5.97848 c 1.9109,0 3.3487,0.4459 4.3132,1.3377 0.9828,0.8735 1.4742,2.011 1.4742,3.4123 0,1.2194 -0.3276,2.2112 -0.9828,2.9756 -0.6552,0.7462 -1.4923,1.2558 -2.5115,1.5288 z m -7.04313,-0.546 h 4.80463 c 1.43775,0 2.5388,-0.3367 3.3032,-1.0101 0.7825,-0.6916 1.1738,-1.6379 1.1738,-2.8391 0,-1.1647 -0.3822,-2.0838 -1.1465,-2.7572 -0.7644,-0.6734 -1.92005,-1.01 -3.467,-1.01 H 1.99282 Z m 4.77733,9.3908 c 1.54694,0 2.7572,-0.3639 3.6308,-1.0919 0.8917,-0.7462 1.3376,-1.7654 1.3376,-3.0575 0,-1.274 -0.455,-2.284 -1.3649,-3.0302 -0.8918,-0.7644 -2.12026,-1.1466 -3.6854,-1.1466 H 1.99282 v 8.3262 z m 11.7959,1.1466 c -0.3093,0 -0.5641,-0.1001 -0.7643,-0.3003 -0.2002,-0.2002 -0.3003,-0.455 -0.3003,-0.7644 0,-0.3094 0.1001,-0.5641 0.3003,-0.7643 0.2002,-0.2002 0.455,-0.3003 0.7643,-0.3003 0.2912,0 0.5369,0.1001 0.7371,0.3003 0.2002,0.2002 0.3003,0.4549 0.3003,0.7643 0,0.3094 -0.1001,0.5642 -0.3003,0.7644 -0.2002,0.2002 -0.4459,0.3003 -0.7371,0.3003 z m 7.6824,-1.1193 h 7.125 v 1.0374 h -8.3535 V 30.1911 h 1.2285 z m 11.9079,1.1193 c -0.3094,0 -0.5642,-0.1001 -0.7644,-0.3003 -0.2002,-0.2002 -0.3003,-0.455 -0.3003,-0.7644 0,-0.3094 0.1001,-0.5641 0.3003,-0.7643 0.2002,-0.2002 0.455,-0.3003 0.7644,-0.3003 0.2912,0 0.5369,0.1001 0.737,0.3003 0.2002,0.2002 0.3003,0.4549 0.3003,0.7643 0,0.3094 -0.1001,0.5642 -0.3003,0.7644 -0.2001,0.2002 -0.4458,0.3003 -0.737,0.3003 z m 17.3188,-4.9957 h -9.0905 l -1.8291,4.9138 h -1.3376 l 7.0431,-18.7271 h 1.365 l 7.0158,18.7271 h -1.3376 z m -0.3821,-1.0374 -4.1495,-11.1653 -4.1767,11.1653 z m 8.6252,6.0331 c -0.3094,0 -0.5642,-0.1001 -0.7644,-0.3003 -0.2002,-0.2002 -0.3003,-0.455 -0.3003,-0.7644 0,-0.3094 0.1001,-0.5641 0.3003,-0.7643 0.2002,-0.2002 0.455,-0.3003 0.7644,-0.3003 0.2912,0 0.5368,0.1001 0.737,0.3003 0.2002,0.2002 0.3003,0.4549 0.3003,0.7643 0,0.3094 -0.1001,0.5642 -0.3003,0.7644 -0.2002,0.2002 -0.4458,0.3003 -0.737,0.3003 z m 20.1579,-0.0819 h -1.2284 L 71.40055,32.2112 V 49.355 h -1.2285 V 30.2184 h 1.2285 l 11.2472,17.0892 V 30.2184 h 1.2284 z m 6.497,0.0819 c -0.3094,0 -0.5642,-0.1001 -0.7644,-0.3003 -0.2002,-0.2002 -0.3003,-0.455 -0.3003,-0.7644 0,-0.3094 0.1001,-0.5641 0.3003,-0.7643 0.2002,-0.2002 0.455,-0.3003 0.7644,-0.3003 0.2912,0 0.5369,0.1001 0.737,0.3003 0.2002,0.2002 0.3003,0.4549 0.3003,0.7643 0,0.3094 -0.1001,0.5642 -0.3003,0.7644 -0.2001,0.2002 -0.4458,0.3003 -0.737,0.3003 z m 5.6895,-9.6366 c 0,-1.8927 0.3913,-3.5761 1.1738,-5.0503 0.8008,-1.4923 1.8924,-2.6571 3.2764,-3.4942 1.401,-0.8372 2.966,-1.2558 4.695,-1.2558 2.184,0 4.022,0.5096 5.514,1.5288 1.493,1.0191 2.585,2.4478 3.276,4.2859 h -1.419 c -0.546,-1.456 -1.456,-2.6025 -2.73,-3.4397 -1.256,-0.8553 -2.803,-1.283 -4.641,-1.283 -1.474,0 -2.812,0.3549 -4.013,1.0646 -1.201,0.6916 -2.148,1.7017 -2.8391,3.0302 -0.6916,1.3104 -1.0374,2.8482 -1.0374,4.6135 0,1.7472 0.3458,3.2759 1.0374,4.5863 0.6911,1.2921 1.6381,2.2931 2.8391,3.0029 1.201,0.7097 2.539,1.0646 4.013,1.0646 1.838,0 3.385,-0.4186 4.641,-1.2557 1.274,-0.8554 2.184,-2.011 2.73,-3.467 h 1.419 c -0.691,1.8381 -1.783,3.2668 -3.276,4.2859 -1.492,1.0192 -3.33,1.5288 -5.514,1.5288 -1.729,0 -3.294,-0.4095 -4.695,-1.2285 -1.384,-0.8371 -2.4756,-1.9928 -3.2764,-3.4669 -0.7825,-1.4924 -1.1738,-3.1758 -1.1738,-5.0504 z m 23.7642,9.6366 c -0.309,0 -0.564,-0.1001 -0.764,-0.3003 -0.2,-0.2002 -0.3,-0.455 -0.3,-0.7644 0,-0.3094 0.1,-0.5641 0.3,-0.7643 0.2,-0.2002 0.455,-0.3003 0.764,-0.3003 0.292,0 0.537,0.1001 0.737,0.3003 0.201,0.2002 0.301,0.4549 0.301,0.7643 0,0.3094 -0.1,0.5642 -0.301,0.7644 -0.2,0.2002 -0.445,0.3003 -0.737,0.3003 z m 17.319,-4.9957 h -9.09 l -1.829,4.9138 h -1.338 l 7.043,-18.7271 h 1.365 l 7.016,18.7271 h -1.338 z m -0.382,-1.0374 -4.149,-11.1653 -4.177,11.1653 z m 8.625,6.0331 c -0.309,0 -0.564,-0.1001 -0.764,-0.3003 -0.2,-0.2002 -0.3,-0.455 -0.3,-0.7644 0,-0.3094 0.1,-0.5641 0.3,-0.7643 0.2,-0.2002 0.455,-0.3003 0.764,-0.3003 0.291,0 0.537,0.1001 0.737,0.3003 0.201,0.2002 0.301,0.4549 0.301,0.7643 0,0.3094 -0.1,0.5642 -0.301,0.7644 -0.2,0.2002 -0.446,0.3003 -0.737,0.3003 z m 20.104,-19.2458 V 49.355 h -1.229 v -9.2817 h -11.192 v 9.2817 h -1.229 V 30.1911 h 1.229 v 8.8449 h 11.192 v -8.8449 z"
     fill="#000000"
     id="path4" />
  <path
     d="m 47.42495,62.8261 c 0,-0.9324 0.1832,-1.7483 0.5495,-2.4476 0.3774,-0.6994 0.8936,-1.2377 1.5485,-1.6151 0.666,-0.3774 1.4208,-0.5661 2.2644,-0.5661 0.9547,0 1.765,0.2331 2.431,0.6993 0.666,0.4662 1.1322,1.06 1.3986,1.7816 v -2.3644 h 0.7493 v 9.0412 h -0.7493 v -2.381 c -0.2664,0.7326 -0.7381,1.3376 -1.4152,1.8149 -0.6661,0.4662 -1.4708,0.6993 -2.4144,0.6993 -0.8436,0 -1.5984,-0.1887 -2.2644,-0.5661 -0.6549,-0.3885 -1.1711,-0.9324 -1.5485,-1.6318 -0.3663,-0.7104 -0.5495,-1.5318 -0.5495,-2.4642 z m 8.192,0 c 0,-0.7881 -0.1665,-1.4819 -0.4995,-2.0813 -0.3219,-0.6105 -0.7659,-1.0768 -1.332,-1.3987 -0.5661,-0.333 -1.1988,-0.4995 -1.8982,-0.4995 -0.7326,0 -1.3764,0.161 -1.9314,0.4829 -0.555,0.3108 -0.9879,0.7659 -1.2987,1.3653 -0.3109,0.5994 -0.4663,1.3099 -0.4663,2.1313 0,0.8214 0.1554,1.5318 0.4663,2.1312 0.3108,0.5995 0.7437,1.0601 1.2987,1.382 0.5661,0.3219 1.2099,0.4829 1.9314,0.4829 0.6994,0 1.3321,-0.161 1.8982,-0.4829 0.5772,-0.333 1.0268,-0.7992 1.3487,-1.3986 0.3219,-0.6105 0.4828,-1.3154 0.4828,-2.1146 z m 12.4226,-4.6955 c 1.0767,0 1.9536,0.3331 2.6308,0.9991 0.6771,0.6549 1.0156,1.6317 1.0156,2.9305 v 5.2948 h -0.7326 v -5.2449 c 0,-1.0767 -0.2719,-1.8981 -0.8159,-2.4643 -0.5439,-0.5772 -1.282,-0.8658 -2.2145,-0.8658 -0.9768,0 -1.7594,0.3108 -2.3477,0.9324 -0.5772,0.6217 -0.8658,1.543 -0.8658,2.764 v 4.8786 h -0.7493 v -9.0412 h 0.7493 v 1.9148 c 0.2553,-0.6771 0.6771,-1.1933 1.2654,-1.5485 0.5994,-0.3663 1.2877,-0.5495 2.0647,-0.5495 z m 14.52,4.0961 c 0,0.3996 -0.0111,0.6993 -0.0333,0.8991 h -7.8091 c 0.0222,0.8103 0.1998,1.493 0.5328,2.048 0.333,0.555 0.7715,0.9713 1.3154,1.2488 0.5439,0.2775 1.1378,0.4162 1.7816,0.4162 0.888,0 1.6317,-0.2164 2.2312,-0.6493 0.5994,-0.444 0.9768,-1.0435 1.1322,-1.7983 h 0.7826 c -0.1776,0.9213 -0.6328,1.6706 -1.3654,2.2478 -0.7326,0.5661 -1.6595,0.8492 -2.7806,0.8492 -0.8436,0 -1.5984,-0.1887 -2.2645,-0.5661 -0.666,-0.3774 -1.1877,-0.9158 -1.5651,-1.6151 -0.3774,-0.7104 -0.5661,-1.5374 -0.5661,-2.4809 0,-0.9435 0.1831,-1.765 0.5494,-2.4643 0.3775,-0.6993 0.8992,-1.2321 1.5652,-1.5984 0.666,-0.3774 1.4264,-0.5661 2.2811,-0.5661 0.8658,0 1.6151,0.1887 2.2478,0.5661 0.6438,0.3663 1.1322,0.8602 1.4652,1.4819 0.3331,0.6105 0.4996,1.2709 0.4996,1.9814 z m -0.7493,0.283 c 0.0333,-0.7992 -0.111,-1.4763 -0.4329,-2.0313 -0.3108,-0.5551 -0.7382,-0.9658 -1.2821,-1.2322 -0.5439,-0.2775 -1.1322,-0.4162 -1.765,-0.4162 -0.6327,0 -1.221,0.1387 -1.7649,0.4162 -0.5328,0.2664 -0.9713,0.6771 -1.3154,1.2322 -0.333,0.555 -0.5106,1.2321 -0.5328,2.0313 z m 14.9188,-4.1959 -2.8472,9.0412 h -0.716 l -2.8805,-8.0089 -2.8972,8.0089 h -0.716 l -2.8472,-9.0412 h 0.7826 l 2.4309,8.192 2.8972,-8.192 h 0.716 l 2.8805,8.1587 2.431,-8.1587 z m 6.0408,4.5123 c 0,-0.9435 0.183,-1.765 0.55,-2.4643 0.377,-0.6993 0.893,-1.2321 1.548,-1.5984 0.666,-0.3774 1.427,-0.5661 2.281,-0.5661 1.133,0 2.059,0.283 2.781,0.8491 0.733,0.5661 1.188,1.3265 1.365,2.2811 h -0.782 c -0.145,-0.777 -0.522,-1.3875 -1.132,-1.8315 -0.6,-0.444 -1.344,-0.666 -2.232,-0.666 -0.666,0 -1.271,0.1498 -1.815,0.4495 -0.543,0.2886 -0.982,0.7382 -1.315,1.3487 -0.322,0.5994 -0.483,1.3321 -0.483,2.1979 0,0.8769 0.161,1.6151 0.483,2.2145 0.333,0.5994 0.772,1.049 1.315,1.3487 0.544,0.2997 1.149,0.4495 1.815,0.4495 0.888,0 1.632,-0.222 2.232,-0.666 0.61,-0.444 0.987,-1.0545 1.132,-1.8315 h 0.782 c -0.177,0.9435 -0.632,1.7039 -1.365,2.2811 -0.733,0.5772 -1.659,0.8658 -2.781,0.8658 -0.854,0 -1.615,-0.1887 -2.281,-0.5661 -0.655,-0.3774 -1.171,-0.9158 -1.548,-1.6151 -0.367,-0.7104 -0.55,-1.5374 -0.55,-2.4809 z m 14.871,4.6621 c -0.844,0 -1.604,-0.1887 -2.281,-0.5661 -0.677,-0.3774 -1.21,-0.9158 -1.599,-1.6151 -0.377,-0.7104 -0.566,-1.5374 -0.566,-2.4809 0,-0.9324 0.194,-1.7483 0.583,-2.4476 0.388,-0.7105 0.921,-1.2488 1.598,-1.6151 0.688,-0.3774 1.454,-0.5661 2.298,-0.5661 0.844,0 1.604,0.1887 2.281,0.5661 0.677,0.3663 1.205,0.8991 1.582,1.5984 0.388,0.6993 0.583,1.5208 0.583,2.4643 0,0.9435 -0.195,1.7705 -0.583,2.4809 -0.389,0.6993 -0.927,1.2377 -1.615,1.6151 -0.677,0.3774 -1.438,0.5661 -2.281,0.5661 z m 0,-0.666 c 0.655,0 1.265,-0.1443 1.831,-0.4329 0.578,-0.2997 1.038,-0.7493 1.382,-1.3487 0.344,-0.5994 0.516,-1.3376 0.516,-2.2145 0,-0.8658 -0.172,-1.5985 -0.516,-2.1979 -0.344,-0.5994 -0.799,-1.0434 -1.365,-1.332 -0.566,-0.2997 -1.177,-0.4496 -1.832,-0.4496 -0.655,0 -1.265,0.1499 -1.831,0.4496 -0.555,0.2886 -1.005,0.7326 -1.349,1.332 -0.344,0.5994 -0.516,1.3321 -0.516,2.1979 0,0.8769 0.166,1.6151 0.5,2.2145 0.344,0.5994 0.793,1.049 1.348,1.3487 0.566,0.2886 1.177,0.4329 1.832,0.4329 z m 10.915,-8.6916 c 1.076,0 1.953,0.3331 2.63,0.9991 0.678,0.6549 1.016,1.6317 1.016,2.9305 v 5.2948 h -0.733 v -5.2449 c 0,-1.0767 -0.271,-1.8981 -0.815,-2.4643 -0.544,-0.5772 -1.282,-0.8658 -2.215,-0.8658 -0.977,0 -1.759,0.3108 -2.348,0.9324 -0.577,0.6217 -0.865,1.543 -0.865,2.764 v 4.8786 h -0.75 v -9.0412 h 0.75 v 1.9148 c 0.255,-0.6771 0.677,-1.1933 1.265,-1.5485 0.599,-0.3663 1.288,-0.5495 2.065,-0.5495 z m 5.911,4.6955 c 0,-0.9435 0.183,-1.765 0.55,-2.4643 0.377,-0.6993 0.893,-1.2321 1.548,-1.5984 0.666,-0.3774 1.427,-0.5661 2.281,-0.5661 1.133,0 2.059,0.283 2.781,0.8491 0.733,0.5661 1.188,1.3265 1.365,2.2811 h -0.782 c -0.145,-0.777 -0.522,-1.3875 -1.132,-1.8315 -0.6,-0.444 -1.344,-0.666 -2.232,-0.666 -0.666,0 -1.271,0.1498 -1.815,0.4495 -0.543,0.2886 -0.982,0.7382 -1.315,1.3487 -0.322,0.5994 -0.483,1.3321 -0.483,2.1979 0,0.8769 0.161,1.6151 0.483,2.2145 0.333,0.5994 0.772,1.049 1.315,1.3487 0.544,0.2997 1.149,0.4495 1.815,0.4495 0.888,0 1.632,-0.222 2.232,-0.666 0.61,-0.444 0.987,-1.0545 1.132,-1.8315 h 0.782 c -0.177,0.9435 -0.632,1.7039 -1.365,2.2811 -0.733,0.5772 -1.659,0.8658 -2.781,0.8658 -0.854,0 -1.615,-0.1887 -2.281,-0.5661 -0.655,-0.3774 -1.171,-0.9158 -1.548,-1.6151 -0.367,-0.7104 -0.55,-1.5374 -0.55,-2.4809 z m 19.033,-0.5994 c 0,0.3996 -0.011,0.6993 -0.033,0.8991 h -7.809 c 0.022,0.8103 0.2,1.493 0.533,2.048 0.333,0.555 0.771,0.9713 1.315,1.2488 0.544,0.2775 1.138,0.4162 1.782,0.4162 0.888,0 1.632,-0.2164 2.231,-0.6493 0.599,-0.444 0.977,-1.0435 1.132,-1.7983 h 0.783 c -0.178,0.9213 -0.633,1.6706 -1.366,2.2478 -0.732,0.5661 -1.659,0.8492 -2.78,0.8492 -0.844,0 -1.599,-0.1887 -2.265,-0.5661 -0.666,-0.3774 -1.187,-0.9158 -1.565,-1.6151 -0.377,-0.7104 -0.566,-1.5374 -0.566,-2.4809 0,-0.9435 0.183,-1.765 0.55,-2.4643 0.377,-0.6993 0.899,-1.2321 1.565,-1.5984 0.666,-0.3774 1.426,-0.5661 2.281,-0.5661 0.866,0 1.615,0.1887 2.248,0.5661 0.643,0.3663 1.132,0.8602 1.465,1.4819 0.333,0.6105 0.499,1.2709 0.499,1.9814 z m -0.749,0.283 c 0.033,-0.7992 -0.111,-1.4763 -0.433,-2.0313 -0.311,-0.5551 -0.738,-0.9658 -1.282,-1.2322 -0.544,-0.2775 -1.132,-0.4162 -1.765,-0.4162 -0.633,0 -1.221,0.1387 -1.765,0.4162 -0.533,0.2664 -0.971,0.6771 -1.315,1.2322 -0.333,0.555 -0.511,1.2321 -0.533,2.0313 z m 3.846,-1.8149 c 0.256,-0.7326 0.716,-1.332 1.382,-1.7982 0.677,-0.4662 1.493,-0.6993 2.448,-0.6993 0.844,0 1.593,0.1887 2.248,0.5661 0.666,0.3774 1.182,0.9157 1.548,1.6151 0.378,0.6993 0.566,1.5152 0.566,2.4476 0,0.9324 -0.188,1.7538 -0.566,2.4642 -0.366,0.6994 -0.882,1.2433 -1.548,1.6318 -0.655,0.3774 -1.404,0.5661 -2.248,0.5661 -0.944,0 -1.754,-0.2331 -2.431,-0.6993 -0.666,-0.4773 -1.132,-1.0767 -1.399,-1.7983 v 6.6269 h -0.749 V 58.3138 h 0.749 z m 7.426,2.1313 c 0,-0.8214 -0.155,-1.5319 -0.466,-2.1313 -0.311,-0.5994 -0.749,-1.0545 -1.315,-1.3653 -0.555,-0.3219 -1.199,-0.4829 -1.932,-0.4829 -0.699,0 -1.332,0.1665 -1.898,0.4995 -0.566,0.3219 -1.01,0.7882 -1.332,1.3987 -0.322,0.5994 -0.483,1.2932 -0.483,2.0813 0,0.7992 0.161,1.5041 0.483,2.1146 0.322,0.5994 0.766,1.0656 1.332,1.3986 0.566,0.3219 1.199,0.4829 1.898,0.4829 0.733,0 1.377,-0.161 1.932,-0.4829 0.566,-0.3219 1.004,-0.7825 1.315,-1.382 0.311,-0.5994 0.466,-1.3098 0.466,-2.1312 z m 4.227,-3.8629 v 5.9775 c 0,0.666 0.122,1.1267 0.366,1.382 0.245,0.2442 0.678,0.3663 1.299,0.3663 h 1.016 v 0.666 h -1.132 c -0.788,0 -1.371,-0.1832 -1.749,-0.5495 -0.366,-0.3774 -0.549,-0.999 -0.549,-1.8648 v -5.9775 h -1.365 v -0.6494 h 1.365 V 56.016 h 0.749 v 2.2978 h 2.681 v 0.6494 z m 4.624,8.4418 c -0.189,0 -0.344,-0.0611 -0.467,-0.1832 -0.122,-0.1221 -0.183,-0.2775 -0.183,-0.4662 0,-0.1887 0.061,-0.3441 0.183,-0.4662 0.123,-0.1221 0.278,-0.1832 0.467,-0.1832 0.177,0 0.327,0.0611 0.449,0.1832 0.122,0.1221 0.183,0.2775 0.183,0.4662 0,0.1887 -0.061,0.3441 -0.183,0.4662 -0.122,0.1221 -0.272,0.1832 -0.449,0.1832 z"
     fill="#58391d"
     id="path6" />
</svg>
